<svg version="1.2" xmlns="http://www.w3.org/2000/svg" viewBox="0 0 980 980" width="980" height="980"><style>.a{opacity:.91;fill:#4bde80}</style><path fill-rule="evenodd" class="a" d="m412.4 65.1c-4.6 2.4-7.2 4.9-9.6 9.6-2.4 4.8-3 7.6-2.3 11.9l0.8 5.7c-14.8 6.9-26.1 12.1-34.6 15.9l-15.5 6.9c-8.2-7.2-10.5-8.1-15.9-8.1-4.4 0-7.8 0.8-10.2 2.6-1.9 1.4-4.4 4.7-5.6 7.3l-2.1 4.6c-17.5-1.4-25.5-1.8-29.2-1.8-5 0-6.7-0.5-6.7-2.1 0-1.2-0.9-4-2.1-6.3-1.2-2.4-4-5.2-6.3-6.4-2.4-1.1-6.8-2.1-9.9-2.1-3.9 0-6.9 1.1-9.9 3.5-2.4 2.1-4.7 5.8-5.5 8.8-0.8 3.3-0.8 6.9 0.1 9.5 0.7 2.4 1.9 4.9 2.7 5.7 0.8 0.9-3.2 6.6-11.4 16.1l-12.6 14.8c-11.5-0.6-13.3 0-16.2 2.8-2.3 2.4-3.5 5.1-3.5 8.1 0 4.5-0.3 4.8-23.6 16.5-23.1 11.6-23.6 11.7-27.1 9.4-1.9-1.2-5.4-2.3-7.7-2.3-2.6 0-5.4 1.2-7.2 3.1-1.6 1.8-3.4 4.4-3.9 5.7-0.5 1.4 0 4.5 1.1 7.1l2 4.5c-37.6 48.1-43.6 54.8-45.6 54.5-1.5-0.2-5.3-0.7-8.4-1.2-3.5-0.5-7.8 0-11.6 1.5-4.4 1.6-6.9 3.8-9.4 8.2-2 3.4-3.5 8.3-3.6 11.3 0 2.9 0.9 7.3 1.9 9.8 1 2.5 3.7 6.1 6 7.9 2.2 1.7 6.5 4 9.4 4.9 2.9 0.9 5.3 1.7 5.4 1.7 0 0 1.1 10.7 2.5 23.9 1.8 16.9 2.1 24.1 1 24.5-0.9 0.4-3 2.1-4.7 3.9-1.8 1.8-3.2 5-3.2 7.1 0 2.2 0.9 5.3 2.1 7.1 2 3 1.4 4.4-13.7 29.5l-15.8 26.4c-11-0.6-14.9 0.2-17.7 1.8-2.3 1.3-5.2 4.7-6.5 7.4-1.4 3.1-1.9 6.7-1.4 9.8 0.6 3.3 2.6 6.6 6.2 9.8 5 4.5 5.7 4.7 13 3.9l7.8-0.9c28.9 38.5 36.4 49.6 36.2 51.3-0.1 1.5-0.6 5-1 7.7-0.7 3.4-0.2 5.9 1.3 8.1 1.2 1.7 3.8 3.5 5.7 3.9 1.9 0.4 3.5 0.8 3.5 1 0 0.2 1 12.4 2.1 27.1 1.1 14.7 1.7 27.1 1.2 27.5-0.4 0.4-2.1 1.3-3.7 2.1-1.6 0.8-4.4 3.6-6.2 6.3-1.8 2.7-3.3 6.4-3.3 8.1 0 1.8 1 5.2 2.2 7.8 1.1 2.5 4 5.6 6.3 7 2.3 1.4 6.8 2.5 9.9 2.5 4.2 0 6.7-1 10.2-4.2 2.5-2.3 5.3-4.2 6.3-4.2 1-0.1 8.4 2.3 16.5 5.2 13.7 4.9 14.8 5.6 15.4 9.5 0.4 2.3 1.9 5.3 3.2 6.7 1.4 1.4 4.8 3 7.5 3.6 4.6 1 5.3 1.9 11.2 15.4l6.4 14.4c-5.7 4.9-8 8.9-8.9 12-1.3 4.7-1.2 6.5 0.9 11.2 1.8 4.1 4.1 6.4 8.1 8.3 3.5 1.6 7.1 2.3 9.7 1.8 2.4-0.4 5.8-2 7.8-3.5 1.9-1.4 4.4-4.7 5.6-7.2l2.1-4.7c27.3 1.5 38.8 2.2 43.3 2.6 7.5 0.6 8.1 0.9 8.7 4.5 0.4 2.1 3.1 6 6 8.6 4.8 4.3 6.1 4.7 11.9 4.3 3.9-0.4 7.7-1.7 9.6-3.4 1.7-1.5 4-4.4 5-6.3l1.8-3.6c27 3.7 34.9 4.8 35.1 4.9 0.2 0 0.4 1.2 0.3 2.5 0 1.4 1.4 3.8 3.2 5.5 1.8 1.6 4.8 3.3 6.7 3.8 2 0.4 5.3-0.1 7.4-1.3 2.1-1.1 4.3-3.4 4.8-5.1 0.8-2.9 1.4-3.1 7.4-2.2 3.5 0.5 14.9 1.8 25.1 2.8 13 1.3 18.7 2.3 18.7 3.6 0 0.9 0.9 3.8 2.1 6.3 1.1 2.5 4 5.7 6.3 7 2.3 1.4 6.8 2.5 9.9 2.5 4.1 0 6.7-1 9.9-3.9 2.4-2.1 4.9-5.7 5.6-8.1l1.3-4.2c39.9-1.7 56.8-2.5 63.4-3l12-0.9c4.2 11.1 6.5 14.1 10.2 16.5 2.9 1.8 7.2 3.7 9.5 4.2 2.3 0.5 6.3 0.2 8.8-0.6l4.5-1.4 19.8 36.6c-5.5 8.2-7.1 12.6-7.1 15.1 0 2.5 0.9 6.3 1.9 8.5 1.1 2.1 3.5 4.9 5.3 6.1 1.9 1.3 5 2.5 6.9 2.7 1.9 0.1 4.9 0.2 6.7 0.1 1.7-0.1 5.4-2 8.1-4.3l4.9-4.3c62.4 26.2 62.6 26.3 63.6 31.1 0.5 2.7 2.6 6.2 4.6 8 2 1.7 5.3 3.2 7.5 3.1 3.6 0 4.7 1.8 17.1 26.4 13 25.9 13.2 26.5 10.9 30-1.3 1.9-2.4 5.4-2.4 7.7 0 2.3 1.1 5.7 2.5 7.4 1.4 1.8 4.7 3.6 7.4 4 3.9 0.7 5.7 0.1 8.5-2.5 2-1.8 3.9-4.1 4.3-5.2 0.4-1.5 2.9-1.7 11.8-1l11.3 1c2.7 8.6 5.3 12.4 7.4 14 2.1 1.5 5.8 3.2 8.1 3.6 2.7 0.6 6.2-0.1 9.8-1.8 4-1.8 6.4-4.3 8.3-8.2 1.8-3.8 2.4-7.2 1.8-10.2-0.5-2.6-2.3-6.2-4.1-8.1-1.7-2-5.7-4.4-8.8-5.5l-5.6-1.9-7.4-51.8c5.7-4.5 7.9-7.5 8.4-9.6 0.7-2.4 0.4-5.2-1-7.9-1.2-2.4-3.7-4.9-5.6-5.7-3.5-1.4-3.6-1.7-3.6-16.9 0-13.5 0.4-15.6 2.5-16.2 1.4-0.5 4.7-1.9 7.3-3.2 2.7-1.3 6.4-4.6 8.2-7.3 2.8-4.1 3.3-6.3 2.8-12.7-0.3-4.2-1-8.7-1.5-9.8-0.8-1.6 3.3-5.3 15.9-14.5 11.9-8.6 17.4-11.9 18.7-10.9 0.9 0.7 3.6 1.4 6 1.6 2.3 0.2 5.6-0.4 7.4-1.3 1.7-0.9 3.8-3.4 4.6-5.6 0.8-2.1 1.1-5.2 0.7-7-0.7-2.8 1.4-4.6 16.1-14.4 16.9-11.3 16.9-11.3 20.8-8.9 2.8 1.7 5.5 2.1 10.2 1.4 3.8-0.5 7.6-2.1 9.5-4.1 1.8-1.7 3.9-5.3 4.6-7.8 0.9-2.9 0.9-6.2 0.1-9.1-0.8-2.5-3.3-6.3-5.7-8.5l-4.3-3.8v-43c6.6-2.7 9.1-5.2 10-7.4 0.8-2.1 1.1-5.4 0.6-7.4-0.4-1.9-1-4.2-1.1-5.1-0.2-1 7.6-10.7 17.3-21.6 12.7-14.4 18.1-19.6 19.7-18.8 1.1 0.5 4.3 1.2 7 1.6 2.9 0.4 6.8-0.3 9.5-1.6 2.5-1.3 5.6-4.4 6.9-6.9 1.5-3.1 2-6.6 1.5-10.9-0.6-4.6-1.9-7.3-4.8-9.9-2.2-2-4.8-3.9-5.8-4.3-1.6-0.5-1.4-4.1 1.1-20.3 1.6-10.8 3.3-21.3 3.6-23.2 0.5-2.5 1.9-3.8 4.9-4.6 2.7-0.7 5-2.6 6.3-5.3 1.2-2.3 1.8-6.1 1.4-8.4-0.4-2.6-2.1-5.1-4.5-6.6-2.8-1.7-5.4-2.1-9.2-1.4-5.2 0.9-5.5 0.7-15.8-10.3-10.5-11.1-10.6-11.3-9.7-17.2 0.5-3.5 0.2-7.3-0.7-9.2-0.9-1.7-3.2-3.8-5.1-4.6l-3.5-1.4v-57.7c7.6-3.3 11.1-6.3 12.6-8.8 1.6-2.5 2.8-6.6 2.8-9.1 0-2.6-1.1-6.5-2.4-8.9-1.4-2.3-4.5-5.1-7-6.3-2.6-1.1-6-2.1-7.8-2.1-1.7 0-4.9 1-7 2.1-3.2 1.7-4.4 1.8-6.5 0.4-1.5-1-10.5-9.1-20.1-18-9.6-8.9-20.5-19-24.2-22.5l-6.8-6.3c3.5-12.5 3.4-13.8 1.3-18.2-1.4-2.8-4.2-6.2-6.3-7.5-2.3-1.5-6.5-2.5-10.5-2.5h-6.7c-18.6-33.2-24-43.5-24-44.3 0-0.8 0.9-1.7 2.1-2.1 1.1-0.4 3.3-3.4 4.9-6.7 1.5-3.3 2.8-7.6 2.8-9.5 0-1.9-1.2-6.1-2.6-9.2-1.5-3.5-4.6-6.9-8-9-3.5-2.1-7.7-3.4-11.2-3.4-3.1 0-7.9 1.2-10.6 2.7-2.7 1.6-6.2 4.8-7.7 7.3-1.6 2.4-3.5 4.2-4.2 4-0.8-0.3-16.5-4.9-34.9-10.2l-33.5-9.7c0.1-6.5-1.2-10.3-2.7-12.6-1.6-2.4-4.3-5-6-6-1.7-0.9-5.4-1.7-8.1-1.7-2.7 0-6.5 0.8-8.4 1.9-3.5 1.9-4.1 1.4-26.1-18.4l-22.5-20.5c0.6-11.2 0-13-2.8-15.9-2.2-2.1-5.1-3.5-7.8-3.5-2.3 0-5.2 0.5-6.5 1.1-1.3 0.6-3.2 2.8-4.2 4.9l-1.9 3.9c-33.3 0-38-0.5-38-1.8 0-1-1.4-3.2-3.2-4.9-1.7-1.7-4.9-3.1-7-3.1-2.2-0.1-5.2 0.6-6.7 1.3-1.6 0.8-3.7 3.2-4.8 5.3l-2 3.9c-60.7 2.7-80.1 3.5-82.3 3.5-2.7 0-3.8-0.7-3.8-2.5 0-1.3-1.2-4.3-2.6-6.7-1.3-2.3-5.3-5.6-8.8-7.3-3.4-1.8-7.8-3.2-9.7-3.2-2 0-6.4 1.4-9.9 3.1zm67.4 17.2c19-0.9 38.3-1.7 42.8-1.8 4.5-0.1 8 0.4 8 1.2 0 0.8 1.6 3 3.6 4.9 2.1 2.1 5.1 3.5 7.5 3.5 3.8 0 4.3 1 11.9 19.4 4.3 10.6 8.4 20.5 9 21.9 0.8 1.8 0 3.6-3.1 6.7-2.3 2.3-4.9 4.2-5.6 4.1-0.8 0-12-4-48.6-17.6v-4.5c0-2.6-0.9-6.5-2.1-8.8-1.2-2.4-3.5-5.2-5.3-6.4-1.7-1.2-6.2-2.1-9.8-2.1-5.1 0-7.7 0.9-15.2 7.1l-15.3-8.1c-15.1-8-15.4-8.2-14.6-12.4 0.4-2.3 1.1-4.5 1.4-4.9 0.4-0.4 16.3-1.4 35.4-2.2zm73.3-0.2c0.1-1.4 4.8-1.8 19.1-1.8 18.3 0 19 0.1 20.6 3.2 0.9 1.7 2.7 3.9 3.9 4.8 1.2 1 4 1.8 6.1 1.8 2.1 0 5-0.6 6.3-1.3 2-1.1 6.6 2.5 25 19.3 13.9 12.7 22.4 21.4 22.1 22.8-0.3 1.2-0.7 3.9-1.1 6-0.4 2.7-1.6 4.1-3.7 4.6-1.8 0.3-14.3 1.6-27.8 2.8-13.6 1.2-27.1 2.5-30 2.9-4.9 0.6-5.4 0.3-7.3-4.3-1.2-2.7-3.6-5.7-5.3-6.6-1.8-0.9-6-2-15.5-3.2l-8.8-21.8c-8.6-21.4-8.8-21.9-6.2-24.7 1.4-1.5 2.6-3.6 2.6-4.5zm-176.6 23.6c13.2-6.1 24.3-11.1 24.6-11.1 0.4-0.1 3.1 2.1 6 4.7 2.9 2.7 7.2 5.4 13.8 7v50l-4.6 1c-2.5 0.5-6.3 2.4-8.5 4.2-2.8 2.4-4.5 2.9-6.3 2-1.4-0.7-13.2-8.1-26.4-16.4-13.2-8.2-24-15.1-24-15.2-0.1-0.1 0.2-3.6 1.5-15.1zm60.2-5.7c2.5-2.3 4.7-4.2 4.9-4.2 0.2 0 7 3.4 29.9 15.4v6.4c0 3.4 1 8.2 2.1 10.5 1.2 2.3 4 5.2 6.3 6.3 2.4 1.2 6.2 2.2 8.5 2.2 2.3 0 5.6-0.8 7.4-1.6 1.7-0.9 4.4-3.2 8.8-8.5l22.5 8.4c12.4 4.7 23.7 9 25.1 9.6 1.7 0.8 2.4 2.2 1.9 4-0.4 1.6-0.2 4.7 0.5 7.1 0.9 2.9 0.7 4.8-0.4 6.1-1 1.1-10.3 8.4-39.8 30.7l-4.5-1.9c-3-1.2-5.7-1.4-7.8-0.6-1.7 0.6-4.1 2.2-5.3 3.5-1.1 1.3-2.7 2.4-3.5 2.3-0.8 0-12.2-2.9-49.2-12.9l-0.3-5.2c-0.1-2.8-1.2-7.2-2.4-9.7-1.3-2.5-4-5.9-6.1-7.4-2.2-1.6-5.7-3.2-11.7-4.2v-50l4.2-1.1c2.4-0.5 6.3-2.9 8.9-5.2zm-155 21.1l12.2 0.7c6.7 0.5 14.7 1.1 17.8 1.4 4.8 0.6 5.8 1.3 6.6 4.6 0.5 2.1 2.8 5.7 9.5 12.3l-9.8 24.6c-9.5 24.1-9.8 24.6-13.9 24.6-2.4 0-5.6 1.5-11.6 7.1l-14.3-3.9c-7.9-2.2-22.4-6-32.3-8.5-16.4-4.1-17.8-4.7-16.9-7.3 0.5-1.6 0.8-4.1 0.7-5.7-0.2-1.5-0.5-4.1-0.7-5.8-0.2-2 3.6-7.7 11.7-17.2 9.7-11.5 12.4-14 14.7-13.3 1.6 0.5 5.8 1 9.4 1 5.2 0.1 7.4-0.6 10.2-3.4 2.1-1.9 4.4-5.2 5.2-7.4zm63 16.5c3.9-2.7 5.5-3.1 7.8-1.9 1.6 0.8 13.3 8 26.1 16.1 12.8 8 23.3 14.7 23.5 14.9 0.2 0.1-0.3 2.6-1.1 5.5-0.9 3.5-0.8 7.2 0.3 11.2 0.9 3.6 3.5 7.9 11.1 15.2l-20.7 45.7-4.8-0.4c-2.9-0.2-6.9 0.8-15.4 5.3l-28.1-21.1c-28-21-28.2-21.1-27.3-25.7 0.6-3.4 0.1-5.5-2.1-8.4-1.7-2.1-3-4.4-3-4.9 0-0.6 4-11.7 17.9-48.3l5.5 0.1c3.5 0 7.2-1.2 10.3-3.3zm276 9c13.5-1.4 26.7-2.6 29.2-2.7 3.2-0.2 4.6 0.4 4.6 1.9 0 1.1 1.8 4.1 8 11.2l-12.9 27.5c-11.4 24.2-13.3 27.4-16.3 27.6-1.9 0.1-5.2 0.2-7.3 0.3-2.2 0.1-5.7 2-7.9 4.1-2.2 2.1-4.2 4.7-4.6 5.7-0.4 1.4-8.7 0-35.7-6.1-19.4-4.4-40.9-9.4-47.9-11.1-12.5-3.1-12.7-3.1-12.7-7.4 0-4 1.9-5.8 40.9-35.4l4.2 2.7c2.3 1.5 6.3 2.7 8.8 2.7 2.5 0 6.5-1.1 8.8-2.5 2.3-1.3 5.2-4.5 6.3-7 1.2-2.5 2.1-5.5 2.1-6.7 0-1.3 1.4-2.1 3.9-2.2 2.1-0.1 14.9-1.2 28.5-2.6zm64.3 4.1c1.5-2.6 3.2-4 4.6-3.6 1.2 0.3 17 4.9 68.1 19.5l-0.3 5.8c-0.2 4.1 0.7 7.2 3.3 11 2 2.9 3.1 6.1 2.6 7.1-0.5 0.9-11.1 15.5-23.6 32.4-15.5 21.1-23.2 30.5-24.7 30-1.2-0.4-4.2-1-6.7-1.5-3.7-0.6-4.8-1.7-5.8-5.3-0.7-2.6-6.4-22.7-12.7-44.7-6.3-22.1-11.8-41.3-12.2-42.6-0.4-1.6 0.4-2.7 2.2-3.2 1.6-0.4 3.9-2.6 5.2-4.9zm-25.4 17.2c4.6-10 4.8-10.2 15.3-10.2l13.6 46.8c12.3 42.5 13.3 47 11.2 48.5-1.3 1-3.2 2.7-4.4 4-1.9 2-4.3 1.1-25.7-9.5-22.4-11-23.6-11.8-22.8-15.2 0.4-1.9-0.2-6.2-1.4-9.5-1.2-3.3-2.8-5.9-3.6-5.9-0.8 0-1.8-0.8-2.2-1.8-0.4-1 2.8-9.7 7.2-19.4 4.4-9.6 10.2-22.1 12.8-27.8zm-476 22.5c12.4-6.3 23.2-11.4 24-11.4 0.7-0.1 2.8 1.2 7.7 5.5l-10.6 43.4-6.3 0.8c-3.5 0.5-8.2 2.1-14.8 6.2l-24.6-20.9 0.9-5.9c0.5-3.3 1-6.1 1-6.2 0.1 0 10.3-5.2 22.7-11.5zm37.4-7c1.9-0.9 4.4-1.7 5.6-1.7 1.1 0 14.1 3.2 28.8 7.1 14.7 3.9 29.1 7.7 32 8.4 3.7 0.9 5.3 2.1 5.3 3.8-0.1 1.4 1.2 4.2 2.8 6.4 1.6 2.1 2.8 4.6 2.7 5.6 0 1-4.3 11.2-9.5 22.9-8.9 20-9.6 21.1-13.6 21.4-2.3 0.2-5.9 1.9-11.9 7.4l-15.2-3.6c-8.3-1.9-17.3-4.1-20-4.8-4.4-1.2-5.1-2-6.1-7.4-0.6-3.3-2.2-7.8-3.5-10-1.3-2.2-4.5-5.2-7-6.7-2.5-1.5-4.5-3.2-4.5-3.7 0-0.6 2.4-10.6 5.4-22.2 4.6-18.2 5.7-21.4 8.7-22.9zm220.2 5.4c1.1-2.3 2.9-4 3.9-3.6 0.9 0.3 10.3 2.8 20.8 5.6 10.4 2.8 21 5.7 23.5 6.4 3.6 1.1 4.6 2.1 4.6 4.9 0 2 1.7 5.1 3.9 7.2 3.3 3.2 4.7 3.7 15.1 2.2l22.2 28.7c22 28.6 22.1 28.8 20 32.6-1.1 2.1-2.1 4.7-2.1 5.6 0 1-0.3 1.8-0.7 1.8-0.4 0-14.5 3.4-31.3 7.7-21.8 5.4-30.8 7.1-31.2 5.9-0.4-0.9-2.6-3.7-5-6.3-2.3-2.6-6.2-5.3-8.5-6-2.3-0.8-6.4-1.3-14.1-0.6l-15-39.4c-8.2-21.7-15.1-40.5-15.1-41.9-0.1-1.3 1.5-3.4 3.4-4.6 1.9-1.1 4.4-4 5.6-6.2zm323.4 4.5c2.1-2.4 3.4-2.8 5.4-1.7 1.5 0.7 5.1 1.4 8 1.5 2.9 0.2 6.8-0.2 8.7-0.7 3.2-0.8 3.9 0.1 9.2 10.7 3.1 6.4 8.4 16.5 17.6 33.5l-2.9 2.4c-1.6 1.4-3.5 5-5.7 13.7l-36.1 5.4c-19.9 3-37.8 5.8-39.7 6.2-2.9 0.6-4.1-0.2-9.9-9.4l21.3-29.2c11.8-16.1 22.6-30.7 24.1-32.4zm-350.9 5.7l7.8 0.2c4.2 0 7.7 0.1 7.7 0.1 0 0 7 18.6 15.6 41.5 11.4 30.3 15.1 41.7 13.8 42.1-1.1 0.3-3.5 2.3-8.9 8.2l-47.2-23.6v-6.3c0-5-0.9-7.4-8.4-16.2l9.8-23zm101.8 7.6c0.9-1.3 2.5-2.1 3.7-1.8 1.2 0.4 20.3 4.8 42.3 9.8 22.1 5 42.4 9.4 45.1 9.9 4.1 0.8 5 1.6 5.8 5.4 0.4 2.5 1.2 5.6 1.7 7 0.7 1.9-3.4 5.7-19.5 17.9-19.7 15-20.5 15.4-23.6 13.3-2-1.4-4.7-1.9-7.7-1.4-4.5 0.8-4.8 0.5-27-28.4-18.9-24.7-22.1-29.6-20.8-31.7zm-208 4.9c2.3-0.8 5-1.5 5.9-1.6 1 0 13.4 8.5 27.5 19 14.1 10.5 26.5 19.5 27.5 20.1 1.3 0.6 1.6 2.6 1.1 6.2-0.6 4-1.6 5.4-4 5.9-1.7 0.3-18.3 1.6-36.9 2.9-18.6 1.2-35.4 2.5-37.3 2.8-2.8 0.5-4.2-0.4-9.9-9.1l9.5-22.1c5.3-12.1 10.2-22.1 10.9-22.3 0.8-0.2 3.3-1 5.7-1.8zm-151.9 5.3c0.4-0.8 1.5-1 2.4-0.4 0.9 0.5 6.8 5.4 13.1 10.9 11.1 9.6 11.4 10 9.5 13.5-1 1.9-1.9 6.2-1.9 9.5 0 3.3 0.7 7.4 1.6 9.1 0.8 1.8 2.7 4.6 4.2 6.3 2.6 3.2 2.6 3.3-9.8 23.3-11.8 19-12.6 20-16.5 19.6-2.6-0.3-5.7 0.7-12.6 5.7l-19.7-9c-17.3-8-19.7-9.6-19.8-12.6-0.1-1.8-0.2-4.6-0.3-6.2-0.2-1.5-1.8-5-7.1-12.7l42.7-55.4 6.7-0.1c3.6 0 7-0.7 7.5-1.5zm486 24.5c2.9-2.6 3.9-2.9 7.1-1.5 2 0.9 12.3 6.1 42.3 21.3v6.4c0 4.5 1 7.9 7.1 16.9l-12.2 22.2c-6.6 12.2-14.2 26.1-16.8 30.9-4.2 7.7-5.2 8.7-8 8-1.7-0.5-3.2-1-3.3-1.1-0.1-0.1-5.3-22.3-11.6-49.4-8.3-35.9-10.9-49.5-9.7-49.9 1-0.4 3.3-2.1 5.1-3.8zm-45.5 14.6c10.8-8.3 19.8-15.1 20-15.1 0.2 0 2.4 1.2 4.9 2.8 2.5 1.5 6.2 2.8 8.1 2.8 3.5 0 3.7 0.6 15.1 49.6 10.7 46 11.4 49.8 9.1 51.3-2 1.5-4.2 0.2-15-9.2-7-6.1-23.8-20.3-62-52.5l0.2-14.6zm166.5 5.1c20.6-3.2 38.8-5.9 40.3-5.9 1.9-0.1 3.7 1.4 7.8 9.6l-36.3 46.5c-19.9 25.6-37.2 47.8-38.3 49.4-1.6 2-3.2 2.6-6 2-2.1-0.4-4.2-1.9-4.5-3.2-0.4-1.4-3.6-18.7-7.2-38.4-5.1-28.5-6.1-36-4.6-36.5 1-0.4 3.6-2.1 5.7-3.9 2.5-2.1 4.2-5.2 5.5-13.8zm-541.9-3.2c-0.1-0.7 9.2 1.1 41.5 9l2.6 6c1.9 4.4 3.6 6.2 6.5 6.8 2.1 0.5 5.6 0.5 7.7 0 3.6-0.8 5.5 1 27.1 25.9 22.6 26 23.2 26.9 21.5 30.6-0.9 2.2-1.9 4.2-2.2 4.6-0.3 0.4-11.6 2-49.7 6.3l-3.1-5.5c-1.7-3.1-5.3-7.1-8-8.9-4-2.7-6.5-3.3-21.8-2.6l-31.4-60.4 4.8-5.3c2.6-2.9 4.6-5.8 4.5-6.5zm105.1 8.4c17-1.4 33.7-2.6 37-2.7 4.4-0.2 5.9 0.3 5.9 1.9 0 1.2 2.3 4.3 5 7 4.3 4.4 5.8 5 11.9 5 5.7 0 7.9-0.8 15.8-7.8l47.2 23.9-0.7 6.4c-0.4 3.5-1.1 6.7-1.6 7.3-0.4 0.5-22.4 7.2-96.6 29l-3.5-3.6c-3-3.1-4.3-3.4-15.5-1.7l-46.3-52.8 1.7-4.6c1.3-3.5 2.6-4.6 5.2-4.7 2 0 17.5-1.2 34.5-2.6zm502.4 1c3.2-1.2 6.4-2.2 7.2-2.3 0.7 0 8.3 6.4 16.8 14.3 8.6 7.9 16.2 15 17.1 15.8 0.9 0.7 5.5 5.2 10.3 9.8 8 7.7 8.7 8.8 7.3 12-0.8 1.9-1.6 5.4-1.9 7.6-0.4 4.1-0.8 4.3-47.6 18.4l-3.8-4.8c-2.1-2.7-6.6-6-9.8-7.4-4.4-1.9-5.9-3.2-5.4-5 0.3-1.4 1.3-14.6 4-56.2zm-34.5 23c16-20.4 19.4-24 21.9-23.3 1.6 0.5 3.4 1.3 3.9 1.8 0.6 0.5 0.1 13.6-1.1 29-1.2 15.5-2.4 29-2.8 29.9-0.4 1-2.1 1.8-3.8 1.8-1.8 0-5.2 1.3-7.8 2.8-2.5 1.6-5.6 4.6-7 6.7-1.3 2.1-2.8 6.7-3.9 16.5l-25.3 6.8c-13.9 3.6-26.6 6.5-28.1 6.3-1.6-0.2-3-1.3-3.2-2.5-0.2-1.2 8.3-13.2 19-26.8 10.6-13.6 27.8-35.6 38.2-49zm-605-19.2h21l31 59.8-4.6 5.7c-2.5 3.1-5.2 5.7-6 5.6-0.8 0-14.1-4.1-29.6-9.1-15.5-5.1-28.9-9.2-29.9-9.2-0.9 0-1.7-1.3-1.7-2.8 0-1.6-1.1-4.6-2.3-6.7-2.3-3.9-2.3-4 9.9-23.6zm330.7 19.5c15.8-4 30-7.3 31.6-7.4 1.5-0.1 3.6 0.6 4.6 1.6 1 1 1.8 2.6 1.8 3.5-0.1 1-9.7 17.7-43 72.4l-5.5-0.5c-5.4-0.4-5.5-0.5-27.6-39.1l3.1-3.2c1.7-1.7 3.9-5.2 4.9-7.7 1-2.6 1.7-6.4 1.3-12.4zm163.9 24.9c14.6-26.9 17.3-31 19.7-30.4 1.6 0.4 3.9 0.8 5.3 0.8 1.4 0 2.5 1.1 2.4 2.5 0 1.3 3 18.3 13.1 72.8l-8.8 9.2-16.6-4.3c-9.1-2.4-18.9-4.9-21.8-5.7-3.1-0.8-5.3-2.2-5.3-3.4 0-1.2-1.1-4-4.9-10.3zm-112.7-26.5c0.4-1 1.5-1.7 2.5-1.7 1 0 4.7 2.4 8.2 5.2 3.4 2.9 10.8 9 16.2 13.7 5.5 4.7 19.3 16.4 30.7 26.1 20.7 17.5 20.7 17.6 19.8 22.5-0.7 4.2-0.2 5.7 7.7 14.8l-10.6 52.1-11.8 3.5-8.8-13c-4.8-7.2-13.2-19.5-28.5-41.9l3.2-5.3c1.7-2.9 3.1-6.7 3.1-8.4 0.1-1.8-0.8-4.9-1.9-7.1-1.1-2.1-3.4-5.1-5.1-6.6-1.7-1.6-5.4-3.2-13.3-4.3l-6-23.9c-3.4-13.2-5.7-24.7-5.4-25.7zm-32.6 36.9c20.7-34.7 21.6-35.9 25.6-35.5 4.1 0.4 4.1 0.4 10.1 24.3 5.6 22.3 5.9 24.1 3.6 25.7-1.3 1-3.8 3.2-5.6 4.9-1.8 1.8-3.6 5.4-4.7 13l-21.4 4.6c-11.7 2.5-22.3 4.6-23.5 4.6-1.1 0-2.9-1.3-3.8-2.8-1.6-2.5 0.6-6.8 19.7-38.8zm-435.5-22.8c1.3-2.5 2.4-4.5 2.6-4.6 0.2 0 9.3 4 20.1 8.8 18 8 19.8 9.1 19.7 12.3-0.1 2 1.1 5.1 2.7 7.1 1.5 1.9 4.8 4.1 7.2 4.9 4.5 1.4 4.5 1.4 23.8 69l-3.1 2.4c-1.7 1.3-3.6 2.4-4.2 2.5-0.6 0-16-6.2-34.2-13.7-25.6-10.6-33.1-14.3-33.1-16.2 0.1-1.4-1-4.4-2.4-6.7-1.3-2.3-4.2-4.9-6.3-5.6-2.2-0.8-3.9-2.5-3.9-3.9 0-1.4-1-11-2.1-21.5-1.1-10.4-2.1-19.9-2.1-21.1-0.1-1.1 2.9-3.7 6.5-5.6 4-2.2 7.5-5.3 8.8-8.1zm295.8 20.9c25.9-7.7 47.8-14.1 48.5-14.1 0.8-0.1 2.6 1.9 3.9 4.5 2.2 3.8 2.2 4.9 0.6 6.6-1 1.2-11.6 13.5-23.6 27.5-11.9 13.9-22.5 26.1-23.4 27.1-1.5 1.4-3.1 1.4-8.1 0-5.4-1.5-6.9-1.5-11.2 0.7-2.8 1.3-6.3 4.5-7.9 7-1.9 3.1-2.7 6.3-2.4 9.5 0.3 2.7 0.8 5.8 1.2 6.9 0.3 1.1-5.7 6.6-15.3 13.7-15.8 11.8-15.8 11.8-24.3 7.6l0.8-21.5c0.4-11.8 1-27.3 1.4-34.5 0.6-12.1 0.9-13 3.8-13.6 1.8-0.4 4.3-2.6 5.6-5 1.4-2.3 2.2-4.9 1.8-5.7-0.4-0.7-0.2-1.6 0.4-2 0.5-0.3 22.2-6.9 48.2-14.7zm48.3 5.8c4.7-5.6 8.6-10.2 8.6-10.2 0.1 0 2.1 0.9 4.7 2.1 2.5 1.2 4.5 2.5 4.5 2.9 0 0.3-3.5 23.3-7.7 51-4.3 27.7-8.1 51.7-8.4 53.5-0.5 2-2.4 3.6-5.3 4.5-4.5 1.4-4.9 1.2-17.3-10.8-6.9-6.7-14.4-13.8-16.6-15.8-3.8-3.6-3.8-3.7-1.7-8.9 1.2-3 1.8-6.9 1.3-9.1-0.5-2.2-1.7-5.2-2.7-6.7-1.7-2.6-0.3-4.6 15.1-22.6 9.3-10.8 20.7-24.3 25.5-29.9zm24.9-6.1c2.7-0.5 5.5-1 6.3-1.1 0.8-0.2 6.6 8.8 13.1 19.8 10.3 17.9 11.4 20.4 9.5 22.3-1.2 1.1-2.1 4.5-2.2 7.4 0 3.7 0.9 6.1 3.2 8.1 1.7 1.5 4.3 2.8 5.6 2.8 1.4 0 2.5 0.1 2.5 0.3 0 0.2 0.9 6.7 2 14.5 1.1 7.7 1.9 14 1.7 14-0.1 0-2.7 1.4-5.8 3-3.3 1.7-7 5.3-8.8 8.5-1.7 3-3.2 7-3.2 8.9 0 3.4-0.5 3.6-15.8 6-8.7 1.4-17 2.5-18.3 2.5-1.4 0-4.5-2.1-11.3-9.2l16.7-106.9zm-307.1 5.1c1.9-2 3.8-3.6 4.3-3.5 0.4 0 14.4 4.4 61.3 19.5l0.7 7.5c0.5 5.3 1.9 9.2 4.6 12.8 2.8 3.8 5.7 5.7 17.2 9l1.7 28.7c0.9 15.8 1.7 31.2 1.7 34.3 0.1 5.3-0.3 5.9-5.8 8.8-3.3 1.8-6.5 3.2-7.1 3.2-0.5 0-11.8-7.1-49-31.7l0.1-5.3c0-3.4-0.9-6.2-2.8-8-1.5-1.6-4.7-3.3-7-3.9-4.1-1.1-4.3-1.6-23.3-67.9zm695.7 9.4c12.7-3.9 23.5-7.2 24.1-7.2 0.6-0.1 3.3 2.1 6 4.8 2.7 2.7 6.2 5 7.7 5 2.7 0 2.8 0.9 2.8 59.1l-4.2 2.1c-2.5 1.2-4.5 3.5-4.9 5.6-0.6 3-1.7 3.6-6.7 4.2-3.3 0.3-12.2 1-33.4 2.2l-4.6-4.9c-3-3.2-5.9-4.9-8.4-4.9-3.7-0.1-4.2-0.9-14.1-31.8l4.4-3.1c2.4-1.8 5.3-5.1 6.5-7.4 1.1-2.3 2-7 1.7-16.5zm-555.5 7.6c7.8-1.1 15.9-2 18-2.1 2.7-0.1 4.5 0.9 6 3.4 1.1 1.9 3.5 3.9 8.4 5.3l-1.2 34c-0.6 18.6-1.6 34.3-2.1 34.8-0.5 0.5-2.2 1.3-3.7 1.7-2.3 0.7-8.5-4.7-31.7-27.9-22.9-22.8-28.5-29.1-27.2-30.6 0.9-1 2.5-4.8 3.5-8.5 1.9-6.6 1.9-6.7 8.9-7.5 3.9-0.4 13.4-1.6 21.1-2.6zm477.2 14.9c5.4-1.5 10.3-2.8 10.9-2.9 0.6-0.1 2.4 2.1 3.9 4.8 1.5 2.7 4.5 6 6.6 7.4 2.1 1.3 7.3 2.7 19.1 3.8l10.6 31-3.5 4.2c-2.4 2.9-3.4 5.5-3 8.2 0.4 3.7-0.6 4.5-39.7 26.3l-4.2-3.5c-3.3-2.8-5.8-3.5-19-3.6l-6.4-11.6c-3.6-6.3-10.1-18.2-14.7-26.3-8-14.6-8.1-14.9-5.8-18.7 1.2-2.1 2.2-4.7 2-5.8-0.2-1.3 4.9-3.2 16.6-6.3 9.2-2.4 21.2-5.5 26.6-7zm-228 2.7c7-1.5 13.1-2.7 13.7-2.8 0.6-0.1 1.1 0.5 1.1 1.3 0 0.7 1.6 3.3 3.5 5.6 2 2.4 5.4 4.5 12 5.6l0.1 96.5-4.3 1.7c-4.2 1.7-4.8 1.4-23.6-11.7-13.4-9.4-19.3-14.2-19-15.9 0.2-1.2 0.8-4.8 1.2-7.9 0.6-4 0.1-7.3-1.8-11.1-1.4-3.1-4.5-6.8-6.8-8.4-2.4-1.7-6.5-3.3-14.1-4.5l-3.9-26.7 4.4-4.6c2.4-2.5 4.4-5.8 4.4-7.2-0.1-2.2 1.8-3.1 10.2-5 5.6-1.2 15.9-3.4 22.9-4.9zm114.7 1.3c0.8-1.6 2.4-2.8 3.6-2.8 1.1 0 11.2 2.3 22.5 5.2 19.5 5.1 20.4 5.5 21.1 9.2 0.4 2.1 2.2 5 7.4 8.8l-11.8 47.1c-6.5 26-12.3 47.6-12.9 48.1-0.5 0.5-2.9 1.3-5.3 1.8-3.9 0.8-5.5-0.3-20.9-15-15.6-14.7-16.7-16.1-15.2-19 0.9-1.8 1.6-5.9 1.6-9.2 0-5.1-0.8-6.7-11.2-16.5l10.6-52.6 4.5-1.1c2.5-0.7 5.3-2.5 6-4zm-407.8 7.1c3.2-1.4 6.6-2.7 7.3-2.8 0.8 0 14.3 12.7 29.9 28.4 22.3 22.4 28.2 29 27.1 30.6-0.7 1.2-1.3 3.6-1.3 5.3-0.1 2.8-2.3 3.9-18.7 9.7-10.3 3.6-21.4 7.6-24.7 8.8-5.9 2.2-6.1 2.2-8.1-0.9-1.1-1.7-4.7-4.3-14-8.4l-1.1-24.5c-0.6-13.4-1.4-28.7-2.4-43.5zm328.3 0.9c1.5-0.4 3.4-0.7 4.2-0.8 0.8-0.1 4.1 3.8 7.3 8.6 3.2 4.9 11.5 17 30.9 45.4l-3.4 4.9c-2.9 4.3-3.2 6-1.7 19.7l-15.5 11.3c-15 10.9-15.6 11.2-23.9 7.7l-0.4-48.1c-0.3-47-0.2-48.1 2.5-48.7zm-489 10.4c3-2.6 3.2-2.6 9.5-0.1 3.6 1.4 16 6.4 27.7 11.1 11.6 4.8 23.9 9.9 27.4 11.4 5.6 2.3 6.4 3.3 7.3 8 0.5 3 1.9 6 3.1 6.8 1.2 0.8 2.2 2.3 2.2 3.5-0.1 1.2-4 13.8-17.8 54.2l-5.1 0.3c-5.1 0.4-5.5 0-19.3-17.5-10.8-13.7-13.9-18.7-13.3-20.8 0.5-1.6 1.2-4.4 1.6-6.3 0.5-2.3-0.4-5-2.2-7.4-1.8-2.4-4.8-4.2-7.5-4.7-4.5-0.7-4.7-1.1-16.6-35.8zm628.1 2.4c1.6-0.3 3.3-0.1 3.9 0.3 0.6 0.3 7.5 12.1 15.3 26 7.8 13.9 14.2 25.5 14.2 25.7-0.1 0.2-1.5 2.4-3.2 4.9-2.3 3.2-3.2 6.6-3.2 18.3l-47.9 25.3-5.6-6 11.9-47c10.3-41 12.2-47.1 14.6-47.5zm-656.4 24.5c14-23.5 14.7-24.4 18.7-24 4 0.4 4.5 1.2 10.4 18.1 6 17.3 6.1 17.6 3.5 20.4-1.5 1.5-3.2 4.4-3.7 6.3-0.6 1.9-0.3 5.1 0.5 7 0.8 2 3.1 4.4 5.1 5.3 3.1 1.6 3.4 2.4 2.7 7.1-0.5 2.9-2.5 19.2-4.6 36.2-3.7 30.8-3.8 31-7.3 31.4-3.1 0.4-5.8-2.7-40.8-50.4l2.9-6c1.9-3.8 2.6-7.5 2.1-10.2-0.4-2.3-2.1-6-3.9-8.3-2.5-3.1-2.9-4.5-1.7-6.3 0.8-1.2 8.1-13.2 16.1-26.6zm289.3 5.4c8.5-6.2 15.9-11.3 16.5-11.3 0.6 0 2.8 1 4.9 2.3 2.2 1.4 6.2 2.5 9 2.5 2.8 0.1 6.9-0.8 9.1-1.9 4-1.9 4.2-1.8 14.6 8 5.9 5.5 13.3 12.7 16.6 16 5.1 5.3 5.7 6.5 4.2 8.5-1.6 2.3-4.4 2.2-44.7-1.8-26.9-2.7-43.3-4.9-43.9-5.9-0.6-1-1.2-2.5-1.4-3.5-0.2-0.9 6.6-6.8 15.1-12.9zm502.2-0.2c6.4-0.4 15.2-0.9 19.6-1 7.1-0.3 8.2 0.1 8.8 2.5 0.4 1.6 2.6 3.8 5 5 2.3 1.1 6.6 1.9 9.5 1.7 4.8-0.3 6 0.4 25.7 20.8l-1.8 6c-1.4 4.7-2.7 6.2-6 7.3-2.3 0.7-14.5 4.5-50 15.5l-4.2-3.5c-2.3-1.9-5.8-3.5-7.7-3.5-3.2 0-4.2-1.6-10.6-18.3-3.9-10.1-7-18.9-7-19.7 0-0.8 1.4-3.5 3.1-6 1.8-2.5 3.4-4.9 3.7-5.3 0.2-0.4 5.6-1 11.9-1.5zm-672.6 5.6c0.7-0.7 1.8-1.1 2.4-0.9 0.6 0.2 11.8 7.3 48.9 31.3l-0.9 6.4c-0.7 5-0.2 7.4 5.2 16.8l-25.7 32.4c-21.8 27.5-26 32.1-28.1 30.9-1.4-0.7-4.8-1.3-13-1.3l-16.2-35.2 3-5.3c1.9-3.4 2.7-6.4 2.1-8.4-0.5-1.8-2.2-4.5-6.5-8.8l9.2-27.1c9-26.3 9.4-27 13.7-28.2 2.5-0.7 5.1-1.9 5.9-2.6zm617.9 12.9c17.1-9.6 19.9-10.8 21.8-9 1.2 1.1 4.3 2.4 6.9 3 4.6 1 5 1.7 12.2 20 7.2 18.4 7.3 19.1 4.9 21.8-1.3 1.6-2.9 4.3-3.3 6-0.5 1.7 0.1 5.2 3.4 12.3l-9.7 14.1c-9 12.9-10.1 14.1-14.5 14.2-2.6 0.1-6.2 0.9-7.9 1.8-1.7 0.9-4 3.7-6.7 11.1l-36.6 6.9-3.5-3.8c-1.9-2-4.3-4-5.3-4.3-1.6-0.5-1.6-5.6 0-28.6 1.4-22.5 2.2-28.1 3.9-28.5 1.2-0.4 3.6-1.4 5.5-2.3 1.8-0.9 4.6-3.3 6.1-5.2 1.8-2.4 2.8-6 3.2-18.4zm-463.1 5c1.8-3 2.7-3.2 9.5-2.6 4.1 0.4 23.9 2.3 44 4.4 34.2 3.4 36.7 3.8 37 6.4 0.3 2.3-7.2 7.4-81.3 52.8l-4.2-3.5c-2.3-1.9-6-3.9-8.1-4.4-2.1-0.5-6.4-0.6-9.5-0.3-3.1 0.3-7.9 2.2-15.5 7.9l-21.8-14.7c-15.4-10.4-21.7-15.4-21.4-17.1 0.2-1.3 0.5-4.5 1-11.9l24.6-8.8c24.1-8.7 24.7-8.8 27.1-6.2 1.4 1.5 4.2 3.1 6.3 3.6 2.2 0.4 5.3 0.1 7.1-0.7 1.7-0.9 4-3.1 5.2-4.9zm140.1 0.6c4.3-0.6 8.2-1.3 8.8-1.4 0.6 0 2 2.3 3.2 5.2 2.2 5.2 2.1 5.2-2.4 9.6-2.6 2.4-15.7 14.4-29.3 26.7-13.5 12.3-25.6 23.2-26.7 24.1-1.2 0.9-3 1.2-4 0.7-1.4-0.7-0.4-6.3 4.3-24.6 3.8-14.8 6.6-23.6 7.8-23.6 0.9 0.1 3.3-0.7 5.3-1.7 2-1 4.4-3.8 5.3-6.3 1.5-4.2 2.3-4.6 10.8-6 5.1-0.8 12.7-2 16.9-2.7zm-372.3 5.1c1.5-0.4 3.4-0.7 4.2-0.8 0.8-0.1 7.4 7.5 14.8 16.8 7.4 9.3 13.8 17.9 14.4 19 0.6 1.1 0.4 3.4-0.5 5.2-0.8 1.7-1.2 5-0.8 7.4 0.5 2.3 1.9 5.1 3.3 6.3 1.3 1.2 4.6 2.4 7.4 2.8 4.8 0.7 5.1 1.2 20.9 35.9l-8.8 10.1-11.3-3.2c-6.2-1.8-18.6-5.4-27.7-7.9-15.3-4.3-16.5-4.9-17.2-8.5-0.5-2.1-1.9-5-3.3-6.4-1.3-1.4-3.3-2.8-4.2-3.2-1.5-0.5-0.9-7.9 2.4-35.1 2.4-18.9 4.1-35.2 3.9-36.1-0.1-0.9 1-2 2.5-2.3zm416.7 6.7c2.3-1.8 5.1-3 6.3-2.6 1.1 0.4 8.4 5.3 16.2 10.7 7.7 5.5 16.1 11.5 18.6 13.3 4.1 2.9 4.5 3.8 3.5 7.8-1 4.3-1.8 4.7-26.4 13.9-22.2 8.3-25.5 9.2-27.4 7.4-1.2-1.1-3.2-2.8-4.6-3.7-2.3-1.6-2.4-3-1.1-17.9 0.8-8.9 1.5-17.9 1.5-20.1 0-3.2 0.7-3.9 4.6-4.6 2.5-0.4 6.4-2.3 8.8-4.2zm-59.8 27.2c16.6-15.2 30.5-27.8 30.9-27.8 0.4-0.1 3.7 1.2 7.4 2.7 6.5 2.8 6.7 3 6 8.2-0.3 2.9-1 12-1.4 20.4-0.7 14.2-0.9 15.1-3.9 15.8-1.8 0.4-3.9 1.5-4.9 2.4-0.9 1-2.3 3.7-3 6-1 3.1-0.8 5.4 0.6 8.5 2 4.2 1.9 4.4-22.6 38.9l-14.8 0.5-13-15.3c-7.2-8.5-12.7-16.1-12.4-16.9 0.4-0.9 0.7-4.7 0.9-15.7zm-56.4-12.2c12.8-7.8 23.5-14.2 23.9-14.2 0.4 0.1 1.8 0.9 3.2 1.8 2.2 1.6 1.9 3.4-9.5 48l-4.5 1.1c-2.6 0.7-5.6 2.6-6.8 4.3-1.4 2-2 5-1.6 8.1 0.4 2.7 1.1 6.2 1.6 7.8 0.7 2-2.4 8.1-11.1 22.1-11.8 18.9-12.2 19.4-17 19.4-2.7 0-5.7 0.3-6.7 0.8-1 0.4-7.6-5.9-15.8-15.2-7.8-8.7-14.9-17-15.8-18.3-1.5-2.1-1.3-3.4 1.3-7.8 2.5-4.3 2.9-6.9 1.8-22.8l16.9-10.4c9.3-5.7 27.4-16.8 40.1-24.7zm198.5-2.9c8.1-6.1 15.4-11.1 16.2-11.2 0.8 0 2.4 0.9 3.5 2.1 1.2 1.1 4.7 2.5 7.8 2.9 4 0.7 6.9 0.2 14.9-4.2l16.7 16.1c15.6 15 16.7 16.3 15.4 19.6-0.8 1.9-1.1 4.8-0.7 6.3 0.6 2.4-4.9 6.4-38.3 27-21.4 13.3-40.1 24.6-41.5 25-1.4 0.5-4-0.5-6.3-2.4-2.1-1.8-5.9-3.7-13-5.2v-23.3c0-17.6 0.4-23.2 1.7-23.2 1 0.1 3.4-1.6 5.3-3.6 2.5-2.6 3.5-5.2 3.5-9.2 0-5.4 0.4-5.8 14.8-16.7zm317.1-5.4l8.8 8.2-3.3 20.8c-1.8 11.4-3.5 21.8-3.8 23.2-0.4 1.5-2 2.4-4.2 2.4-1.9 0-5.2 1.1-11.2 4.7l-21.2-16c-11.6-8.7-21.3-16-21.5-16-0.2-0.1 0.2-2.3 2-10l27.2-8.7zm-197.3 17.5c12.7-6.6 23.6-12 24.2-12 0.5-0.1 2.4 1.2 4.2 2.8 1.7 1.6 4.6 3.3 6.5 3.9 3.1 0.9 3.3 1.4 2.5 9.4-0.5 4.7-1.2 15.4-1.6 23.9-0.5 8.6-1.1 17.6-1.5 20.1-0.4 2.5-1.4 4.6-2.4 4.5-1 0-3.2 1.3-4.9 2.9-1.8 1.5-3.7 4.7-4.3 7-1 3.9-1.8 4.4-17.2 8.4-8.9 2.4-23 6-46.4 12l-7.3-7 5.7-22.9c3.2-12.6 5.8-23.2 5.8-23.6 0-0.3 1.2-0.7 2.8-0.7 1.5 0 3.8-0.4 5.1-1 1.3-0.6 3.2-2.8 4.2-4.9 1.1-2.2 1.9-5.5 1.7-7.3-0.1-3.1 2.3-4.8 22.9-15.5zm-465.6-0.2c3.2-1.5 6.6-2.5 7.5-2.1 0.9 0.4 10.8 7.1 22.1 14.9 18.9 13 20.3 14.3 19.1 17.2-0.7 1.7-1.3 5.1-1.3 7.4 0 2.8-0.8 4.4-2.5 4.8-1.3 0.4-10.3 2.3-37.6 8l-2.5-2.9c-1.3-1.6-3.9-3.4-5.6-4.1-2.9-1.1-3.3-2.5-4.2-15.1-0.6-7.7-1-16.5-1-19.6 0-5.2 0.5-5.8 6-8.5zm-28.2 13c5.2-6.7 9.6-12.2 9.8-12.2 0.2 0 2.4 0.6 4.9 1.4 3.4 1 4.8 2.4 5.3 5.3 0.3 2.1 0.8 10.7 1.4 34.4l-3.9 2c-2.2 1.1-4.2 3.5-4.6 5.8-0.5 2.1-1 4.5-1.2 5.3-0.2 0.8-9.8 4.5-21.4 8.2-11.5 3.8-22.5 7-24.3 7.1-1.9 0.1-4.1-1-5.1-2.6-1.8-2.6-0.5-4.6 13.8-22.7 8.7-10.9 20-25.4 25.3-32zm309.7 8.7c13.3-5.1 24.7-9.4 25.3-9.5 0.5-0.1 3.2 1.3 10.8 6.2l0.1 45-6 2.4c-3.3 1.3-6.8 3.4-7.8 4.6-1.5 1.9-3.1 1.2-13.3-5.8-6.4-4.4-16.7-11.7-22.9-16.1-10.5-7.6-11.2-8.4-10.4-17.4zm318.9-8.2c1.3-0.8 3.1-1.4 4-1.4 1-0.1 11.2 7.1 22.6 15.9 12.7 9.8 20.5 16.8 20.1 18-0.3 1-0.8 4.1-1.2 6.8-0.3 2.9 0.3 6.8 3.9 14.1l-35.1 40.1-14.6-1.4-15.1-21.8c-13.9-20.1-14.9-22-13.1-24.6 1.1-1.6 2-4.4 2-6.4 0-1.9-1-4.8-2.1-6.3-1.9-2.6-1.2-4 7.8-17.6 9.2-14 10-14.8 14.1-14.3 2.5 0.2 5.5-0.3 6.7-1.1zm-191.3 18.7c6.6-4.1 12.2-7.5 12.4-7.5 0.2 0 1.4 1 2.8 2.2 2.3 2 2.2 3.2-2.6 22.1-2.8 11-5.5 21.9-6 24.2-0.6 2.4-1.5 3.8-2 3.3-0.6-0.5-2.8-0.4-4.9 0.3-2.1 0.8-4.8 3.3-8.1 9.8h-15.8c-8.7 0-21.9-0.4-42.6-1.7l-2.8-9.6 28.8-17.9c15.9-9.8 34.3-21.2 40.8-25.2zm-158.5 11.8c3.9-2.1 4.3-1.9 12 3.5 4.3 3.1 14.5 10.3 37.5 26.5l-1.8 5.6c-1.4 4.3-1.4 7-0.2 11.6 0.9 3.3 2.5 7.2 3.5 8.8 1.8 2.6 1.2 3.7-6.5 13-6.4 7.8-9 10-10.9 9.3-1.3-0.5-4.7-1.3-7.4-1.6-3.4-0.5-6.5 0.2-15.5 5.3l-21.8-14.8c-21.2-14.3-21.8-14.9-21.8-19.7 0-2.7-0.7-6.3-1.6-8.1-1.4-2.8-0.2-5.1 10.9-21 11.3-16.3 12.7-17.8 16-17.1 2 0.5 5.4-0.1 7.6-1.3zm-226.3 4.4c9.2-2 18.2-3.8 19.9-3.8 2.3-0.2 4 1.2 6 4.7 1.5 2.7 4.9 6.2 7.4 7.8 3.6 2.3 6.1 2.7 12.3 2.2 4.3-0.4 9.4-0.9 11.3-1.1 3.1-0.4 5.9 2.2 18.7 16.8 14.9 17 15 17.3 13.5 21.8-1.2 3.4-1.2 5.6 0 8.5 1.4 3.4 1.1 4.4-2.3 8.6-2.1 2.6-8 9.6-13 15.4-8.1 9.4-9.6 10.6-12.7 9.7-1.9-0.5-6.2-0.9-9.4-1-4.2 0-6.8 0.9-9.1 3.1-1.9 1.8-4.3 3.2-5.4 3.1-1.2 0-8.8-3.6-16.9-8-14.1-7.7-14.8-8.3-15.3-13-0.2-2.7-1.8-6.4-3.5-8.1-1.7-1.8-4.3-3.2-5.9-3.1-1.5 0-3.5-0.7-4.3-1.7-0.9-1-4.7-11.5-8.5-23.3-6.6-20.7-6.8-21.6-4.3-24 1.4-1.3 3-4.3 3.6-6.6 1-4.2 1.5-4.4 17.9-8zm128.1 9.4c4.2-6.8 4.7-7.1 18.2-7.6l25.3 30.1v20.1l-46.5 56.4-4.9-0.8c-4.2-0.8-5.6-0.3-13.7 7.3l-18.5-3.1c-18.4-3.2-18.5-3.2-18.5-7.1 0.1-2.1-0.9-5.3-2.1-7-1.7-2.6-1.8-3.7-0.3-5.7 0.9-1.4 7.1-8.7 25.7-29.6l5.8 0.9c4.8 0.8 6.5 0.4 8.9-1.9 1.6-1.5 3.2-4.5 3.6-6.6 0.4-2.2-0.3-5.8-1.4-8.1-2.1-4.2-2-4.5 5.9-17.3 4.4-7.1 10-16.2 12.5-20zm377.4 1.9c9.9-2 18.5-3.8 19-3.9 0.6-0.1 3 1.7 5.3 4.1 3.3 3.3 5.3 4.1 9.1 3.8 4.9-0.3 5.2 0 20.5 21.9 15.3 21.8 15.4 22.2 13.4 26-1.2 2.1-2.1 4.8-2.1 6-0.1 1.5-9.2 4.5-35.6 11.6-19.5 5.3-36.3 9.5-37.3 9.5-1 0-2-1.1-2.4-2.5-0.3-1.3-2.2-3.5-4.2-4.9-2-1.3-5-2.8-6.8-3.2-3-0.7-3.2-1.7-5-26.4-1.5-21.3-1.5-25.7 0-26.2 1-0.4 3.3-2.1 5-3.9 1.8-1.8 3.2-4.4 3.2-5.7 0-2.1 3.1-3.2 17.9-6.2zm-689.2 3.4c2.6-2.5 5-4.6 5.1-4.6 0.2 0 11.6 3.1 25.4 7 13.7 3.9 26.4 7.7 28.1 8.4 2.4 1.1 3.2 2.6 3.2 6.4 0 3.5 1.1 6.1 3.9 8.9 2.1 2.2 4.8 4.3 6 4.7 1.8 0.6 1.5 3.4-1.9 20.3-2.2 10.8-4.6 22.6-5.3 26.3-1.2 6-1.8 6.8-6.2 8-2.7 0.8-5.4 2.5-6 3.7-0.9 2-3.2 1.5-34.8-9.4v-5.3c0-2.9-1.1-7-2.5-9.1-1.4-2.1-4.5-4.7-7-5.8-2.6-1.1-5.6-2.3-6.7-2.6-1.7-0.5-2.6-5.9-6.2-52.4zm142.4-4.3l4.1 3.4c2.2 1.8 5.6 3.3 7.6 3.3 3.3 0 3.9 1.4 10.5 21.5 3.9 11.8 7.1 22.4 7.1 23.6 0 1.1-1.3 3.4-2.8 4.9-1.8 1.7-2.9 4.6-2.9 7 0 2.4 0.7 5.2 1.4 6.4 0.9 1.6-1.3 4.8-8.9 13.2-5.5 6.1-11.6 12.8-13.6 15-3.2 3.5-4.1 3.8-16.9 2l-39.1-66.1 3-4c1.7-2.2 3.4-6.6 4.5-15.6l23-7.3zm498 11.6c3.4-1 6.5-1.9 6.6-1.9 0.2-0.1 2 1.4 3.9 3.4 2 1.9 4.5 3.5 5.6 3.5 1.2 0 2.4 1.4 2.8 3.2 0.3 1.7 1 10.1 1.4 18.6 0.5 8.5 1.1 18.8 1.5 22.9 0.6 7 0.5 7.5-3.2 8.9-2.1 0.8-4.8 2.4-6 3.6-1.8 1.8-3.6 1.2-14.8-5.5-6.9-4.2-22-13.4-33.4-20.5-18.5-11.5-20.8-13.3-21.3-21l25.3-6.6c13.9-3.7 28.1-7.5 31.6-8.6zm-139.4 20.1c0-2.2 2.4-2.4 29.6-2.4 26.8 0 29.6 0.2 30.4 2.4 0.5 1.4 1.8 3.4 2.9 4.6 1.6 1.8 0.2 5-21.4 42.5l-13.3 1.1-9.6-10.2c-5.3-5.6-12.9-13.8-24.2-26.4l2.8-4.5c1.5-2.5 2.8-5.7 2.8-7.1zm-420.2 4.2c2.3-0.3 4.6-0.7 5-0.8 0.3-0.2 9.7 14.9 40.8 67.4l-2.5 3.6c-1.7 2.5-3.3 3.4-5.3 2.9-1.5-0.4-12.2-2.2-23.7-4-20.7-3.2-20.9-3.3-22.6-7.5-0.9-2.3-3-5.1-7.6-8.4l3.9-18.3c2.2-10.1 4.8-21.9 5.9-26.3 1.7-7.4 2.2-8.1 6.1-8.6zm499.2 2.2c1-1 2-1.8 2.2-1.8 0.3 0 9.8 5.9 21.2 13.1 11.4 7.2 26.4 16.5 33.2 20.8 11.5 7 12.4 7.9 11.5 11.1-0.5 2-1 3.7-1.2 3.9-0.1 0.2-16.7 0.9-36.8 1.7-20.1 0.8-42 1.4-48.6 1.5-11.8 0-12-0.1-16.9-8.5l22.1-38.7 5.8-0.7c3.1-0.4 6.5-1.5 7.5-2.4zm-209.2 3.2c1.5-1.2 3.5-2 4.2-1.8 0.8 0.2 11.1 7 44.2 29.9l-0.7 7c-0.7 5.9-0.3 7.9 2.5 12 2 2.9 5.2 5.5 12.6 7.7l-1 27.5c-0.5 15.1-1.3 27.8-1.8 28.3-0.5 0.5-2.8 1.5-5.1 2.3-2.3 0.8-5.2 1.9-6.3 2.4-1.5 0.7-7.2-4.5-19.4-17.4-17.1-18.3-17.2-18.5-15.5-22.6 1.3-3 1.4-5.3 0.4-8.1-0.9-2.3-3.5-4.9-11.3-8.7l-5.6-56.4zm-27.6 18.6c8.1-9.9 15.7-17.9 16.9-17.9 1.2 0 3 0.5 4 1 1.1 0.7 2.8 11.1 7.5 56l-10.7 11.6-19-1.2c-10.4-0.6-20.9-1.2-23.2-1.2-3.5 0-4.5-0.9-5.9-4.6-1.7-4.5-1.5-4.9 7-15.2 4.8-5.8 15.4-18.6 23.4-28.5zm150-14.7l6.4 6.5c3.5 3.6 11.1 11.5 27.7 29l-0.6 7c-0.5 5.6 0 7.8 5 14.1l-6.6 16.9c-5.2 13-7.2 16.8-9.1 16.5-1.3-0.2-4.9 0.3-8 1.1-3.5 0.9-6.6 2.9-8.3 5.3-1.5 2.1-3.3 6.3-5 14.8l-39.5 11.3-6.3-6.5c-3.5-3.6-8.3-7-15.4-8.7l0.8-22.6c0.3-12.3 0.9-25.2 1.3-28.5 0.5-4.9 1.2-5.9 3.6-5.9 1.6 0 5-2.2 7.6-4.8 3.9-4 4.7-5.9 4.8-11.6 0.1-4-0.7-8.2-2-10-2-3.1-1.7-3.7 6.3-13.1 4.7-5.4 8.6-9.8 8.8-9.8 0.2-0.1 2.8 0.9 5.7 2.1 2.9 1.1 7 2.1 9.1 2.1 2.2 0 6.1-1.2 8.8-2.6zm224.5 27.7c19-5.3 35.2-9.6 35.9-9.7 0.8 0 2.9 1.5 4.6 3.4 1.7 1.9 4.1 3.5 5.3 3.5 1.8 0 2.1 3.4 2.1 43.7h-4.9c-2.7 0-6.7 0.8-8.8 1.9-2.2 1-5 4.2-6.4 7-1.3 2.8-2.4 6.6-2.4 8.3 0 1.7 0.9 4.9 4.2 10.9l-16.5 11.1c-15.7 10.5-16.8 11-20.1 9.2-1.9-1-5.1-1.9-7-1.9-3.2 0-4.8-2.6-30-57.1l3.6-4.9c1.9-2.7 4-7.4 5.9-15.9zm-534.1 0.9c1.5-1.2 3.4-2.2 4.2-2.2 0.8 0 8.1 3.8 31.2 16.6l0.2 6.8c0 3.8 1 8.1 2.2 9.6 1.8 2.6 1.6 3.3-3 8.5-2.7 3.1-11.7 12.4-19.9 20.8-10.9 11.1-15.5 14.9-17.1 14.1-1.1-0.6-6.1-1.1-19.9-1.1l-9.5-12.7c-9.5-12.6-9.6-12.7-7.8-17.6 1.1-3.2 1.3-6.2 0.5-8.8-1.1-3.3-0.6-4.7 3.2-9.1 2.5-2.9 8.3-9.6 13-14.8 8.4-9.1 8.7-9.4 14.2-8.6 3.9 0.5 6.5 0 8.5-1.5zm395.5 16.2c16.3-0.6 38.1-1.2 67.6-1.6l2.4 4.9c1.4 2.8 4.2 6.1 6.3 7.5 2.2 1.4 6.5 2.4 16.1 2.4l13.3 29.2c12.8 28.3 13.2 29.3 10.8 32.1-1.4 1.5-3.4 2.8-4.6 2.8-1.2 0-16.8-3.3-34.8-7.4-30.9-7-32.8-7.6-32.8-10.6 0-1.8-1.8-4.6-4.2-6.7-2.3-1.9-5.5-3.5-7-3.5-1.6 0-4.3 0.7-6 1.6-2.9 1.5-5.6-0.3-30.6-20.6-21.6-17.5-27.4-22.9-27-25.2 0.2-1.6 0.5-3.1 0.7-3.3 0.1-0.2 13.5-0.9 29.8-1.6zm-328.1 14.5c1.4-2.4 3.3-4.2 4.2-4 0.8 0.3 9 1.9 34.6 7l2.1 5.2c1.6 4.1 3.2 5.6 11.3 7.6l3.8 18.9c2.1 10.4 3.8 20.4 3.9 22.1 0 1.9-0.8 3.2-2.1 3.2-1.1 0-3.5 1.8-5.2 4-1.8 2.2-3.8 5.1-4.6 6.4-1.3 2.1-2.9 2.1-21.8 0.1-11.3-1.1-22.5-2.4-25-2.8-3.5-0.5-4.7-1.5-4.9-3.8-0.2-1.8-2.4-4.4-9.4-8.9l-0.1-45.7 5.2-2.5c2.9-1.3 6.5-4.4 8-6.8zm290.8-3.4c1.2-0.8 3.1-1.2 4.2-1 1.2 0.3 14 10.1 28.5 21.9 18.4 14.8 26.4 22.2 26.4 24.2 0 1.5-0.8 3.1-1.7 3.4-1 0.4-16.9 0.9-68.7 1.5l-1.4-4.6c-0.7-2.5-3-5.8-8.4-10.2l6.5-16.9c5.5-14.2 7-16.9 9.5-16.9 1.6 0 3.9-0.6 5.1-1.4zm-471.2 6.9c2.5-3.3 3.9-4.1 6.7-3.6 1.9 0.4 12.6 2.2 43.9 7.3l2 4.5c1.1 2.6 3.2 5.3 4.8 6 1.5 0.8 5.1 1.5 8.1 1.5 4.9 0.1 5.8 0.8 24.2 25.3l-5.6 11.2-22.2-0.7c-12.2-0.5-23.7-1.1-25.7-1.5-2.4-0.5-4.2-2.4-5.9-6.3-1.4-3-4.2-6.6-6.4-8-2.1-1.3-6.4-2.5-15.1-2.9l-12-28.4zm152 4.1c2.1-2.2 2.8-2.3 11.7 1.4l0.3 23.3c0.2 14.9-0.1 23.4-1 23.4-0.8 0-3.3 1.9-9.9 8.4l-16.5-2.2c-9.1-1.2-16.6-2.3-16.7-2.4-0.1-0.2-0.8-2.2-1.6-4.5-0.8-2.4-1.9-5.4-2.3-6.7-0.7-1.8 3.7-7.2 16.3-20.3 9.5-9.8 18.4-19 19.7-20.4zm88.1 3.4c3-3.4 6.1-5.7 7.3-5.4 1.2 0.4 11.6 1.1 23.1 1.8 20.6 1.1 20.9 1.2 22.2 4.6 1 2.5 0.8 4.4-0.5 6.5-1 1.6-9.5 11.9-18.7 22.9-13.7 16.1-17.5 19.7-19.7 19-1.6-0.4-4.6-1-6.7-1.3-2.6-0.4-4.1-1.6-4.6-3.8-0.4-1.7-2.3-11.1-7.5-38.3zm55.5 7.3l15.8 0.4 14.5 15.3c8 8.4 15.4 16.6 16.6 18.1 1.7 2.5 1.6 3.5-0.8 8.4-1.6 3.1-2.8 6.6-2.8 7.8 0 1.8-4.7 2.3-29.2 3.2-16.1 0.6-33 1.4-46.1 2.8l-5.7-11.6 18.9-22.2zm192.5 30c15.1-0.3 30.4-0.6 34.1-0.8 6-0.3 6.9 0.1 8.6 3.6 1.9 3.8 1.6 4.3-15.5 26-16.5 21.1-17.6 22.1-21.3 21.1-2.1-0.5-6-0.9-8.8-0.7-2.7 0.2-6.3 1.3-8 2.5-1.8 1.1-4.2 4.3-5.3 7-1.2 2.7-2.1 6.4-2.1 8.1 0.1 2.7-1.7 3.8-11.6 7.5-6.4 2.4-18.1 6.5-40.2 14l-8.8-9.2 12.9-29.9c7.1-16.4 13.4-30.5 14.1-31.3 0.7-0.8 3.3-1.2 5.8-1 2.7 0.2 6.4-0.8 9.1-2.5 2.5-1.6 5.7-5.4 9.5-14zm62.9 4.4c0.9-1.3 2.8-2.2 4.2-1.8 1.4 0.3 16.8 3.7 34.3 7.6 17.4 3.9 31.7 7.3 31.8 7.4 0.1 0.2 0.5 1.9 1 3.8 0.8 3.2-0.6 4.7-32.8 28.2l-5.3-3.6c-4.4-3.1-6.6-3.6-13.1-3.2-5.8 0.3-9.1 1.4-12.7 4.1-2.7 2-5.6 5.5-6.5 7.7-0.9 2.3-2 5.2-2.4 6.6-0.8 2.2-2.9 2.5-17.4 2.5-9.1 0-18.9 0.3-21.8 0.7-5.1 0.6-5.4 0.5-10.9-12l33.1-43.6 4.9 0.9c2.8 0.4 6.4 0 8.4-1 2-1 4.3-2.9 5.2-4.3zm-147.3 7.1c10.4-3 19.4-5.4 20-5.5 0.6 0 3.3 2.2 10.9 9.8l-13.4 30.6c-7.4 16.9-13.6 30.7-13.7 30.9-0.2 0.1-3.4 0.4-14.1 1.1l-9.7-17.6c-5.3-9.6-9.7-17.9-9.7-18.3 0-0.3 1-1.6 2.3-2.8 1.3-1.1 3.3-4 4.5-6.3 1.2-2.3 2.5-7 3.9-16.6zm100.5 57.5c0.7-2.2 3-2.5 45.1-2.5l1.9 6.7c1.1 3.7 1.4 7 0.7 7.5-0.6 0.5-11.3 9.6-23.7 20.4-12.4 10.8-23.4 20.4-24.6 21.3-1.5 1.3-3.4 1.4-11.3-1l-1-17.9c-0.5-9.9-1-18.5-1-19.1-0.1-0.5 2.1-2.1 4.8-3.5 2.7-1.3 5.7-4 6.6-6 1-1.9 2.1-4.6 2.5-5.9zm-61.8 12.9c13.1-4.5 25-8.2 26.4-8.2 1.3-0.1 4.3 1.7 6.6 4.1 2.4 2.3 6.2 4.7 8.5 5.2 3 0.8 4.3 1.9 4.2 3.9 0 1.6 0.7 9.8 2.9 33.8l-3.9 3.1c-2.2 1.7-4.5 3.2-5.3 3.2-0.8 0-15.4-5.8-63.4-26.2v-10.8zm86.8 21.2c14.1-12.4 26-22.4 26.4-22.2 0.5 0.3 3.1 1.5 5.8 2.8 2.7 1.3 5.9 2.6 7 3.1 1.7 0.6 2.2 3.9 2.5 16.3 0.3 15.3 0.3 15.5-3.2 16.9-1.9 0.8-4.5 2.8-5.6 4.6-1.2 1.7-2.1 4.9-2.1 7 0 2.1 0.6 4.2 1.4 4.6 0.8 0.4 1.4 1.2 1.4 1.7 0.1 0.6-2.6 4.5-5.9 8.6-5.6 7-6.4 7.5-10.7 6.7-3.1-0.6-5.8 0-12.7 4.1l-28.7-18.3-1.1-13.4zm-29.1 39.5c0.5-0.8 1.4-1.4 2.1-1.4 0.8 0 7.9 4 15.8 9 14.2 8.9 14.4 9.1 14.1 14.1-0.3 3.8 0.5 5.9 6.7 12.1l-2.8 10.5c-2.7 9.9-3.1 10.6-6.7 10.6-3.7 0-4.7-1.6-16.9-26.7-7.2-14.8-12.7-27.5-12.3-28.2zm58.6 5.5c5.1-6.1 6.4-7 9.5-6.2 2 0.5 3.7 1 3.9 1.1 0.1 0.2 1.9 12 3.9 26.3 3.7 25.1 3.7 26.1 1.2 27.8-1.4 1-3.2 1.6-3.9 1.3-0.8-0.2-6-6.1-11.5-13-9.5-11.9-9.9-12.7-8.1-16.1 1.4-2.6 1.5-4.9 0.5-8.8-1.3-5-1-5.7 4.5-12.4zm-14.3 27.8c1.9-0.3 4.2-0.6 4.9-0.7 0.8 0 6 5.4 21.6 24.4l-3 6.1c-2.5 4.9-3.6 5.9-5.9 5.3-1.5-0.5-6.5-0.8-10.9-0.8-7.9-0.1-8.2-0.2-10.2-5-1.2-2.7-3.1-5.4-4.2-6-1.8-0.9-1.7-2.5 1-11.9 2.8-9.4 3.6-10.9 6.7-11.4z"/></svg>